<svg width="50" height="50" viewBox="0 0 50 50" fill="none" xmlns="http://www.w3.org/2000/svg">
<circle cx="25" cy="25" r="25" fill="url(#paint0_linear_318_32672)"/>
<path d="M26.5 15C26.5 14.1716 25.8284 13.5 25 13.5C24.1716 13.5 23.5 14.1716 23.5 15H26.5ZM23.5 35C23.5 35.8284 24.1716 36.5 25 36.5C25.8284 36.5 26.5 35.8284 26.5 35H23.5ZM15 23.5C14.1716 23.5 13.5 24.1716 13.5 25C13.5 25.8284 14.1716 26.5 15 26.5V23.5ZM35 26.5C35.8284 26.5 36.5 25.8284 36.5 25C36.5 24.1716 35.8284 23.5 35 23.5V26.5ZM23.5 15V35H26.5V15H23.5ZM15 26.5H35V23.5H15V26.5Z" fill="white"/>
<defs>
<linearGradient id="paint0_linear_318_32672" x1="25.1282" y1="50" x2="48.6852" y2="2.75435" gradientUnits="userSpaceOnUse">
<stop stop-color="#4271DF"/>
<stop offset="1" stop-color="#789CF1"/>
</linearGradient>
</defs>
</svg>
